<svg xmlns="http://www.w3.org/2000/svg" width="720" height="520" viewBox="0 0 720 520" fill="none">
  <g stroke="#B58AA8" stroke-width="1.6" opacity=".32">
    <path d="M-84 44C-4-34 106-24 177 35c72 60 151 68 236 17 89-54 194-62 297 7 47 31 84 39 126 25"/>
    <path d="M-69 75C5 6 101 2 163 53c75 62 164 78 259 21 82-49 176-51 270 13 48 33 91 43 139 28"/>
    <path d="M-53 108C15 47 96 33 151 77c77 62 177 88 282 25 75-45 159-39 244 20 49 34 99 48 151 34"/>
    <path d="M-34 143c59-51 126-74 175-38 80 60 190 100 303 32 67-40 139-27 216 27 51 36 108 53 166 42"/>
    <path d="M-10 181c48-41 99-71 143-50 86 41 194 104 321 39 61-31 120-12 190 38 54 39 117 59 181 52"/>
    <path d="M18 222c40-35 76-66 115-62 90 9 193 101 329 51 58-21 103 3 169 51 57 42 126 65 197 63"/>
    <path d="M48 265c32-30 58-55 93-50 80 12 183 80 316 51 68-15 105 17 171 62 55 38 124 61 199 66"/>
    <path d="M83 311c29-29 54-48 89-36 70 24 164 60 283 45 78-10 120 30 185 72 53 34 116 55 185 64"/>
    <path d="M121 359c28-27 61-39 101-20 61 29 137 44 232 36 85-7 132 35 193 73 44 28 97 47 158 59"/>
    <path d="M165 408c34-25 73-27 115-4 50 28 106 35 176 29 88-8 139 27 196 62 33 20 72 36 118 48"/>

    <path d="M76-59c-9 64 17 111 76 141 54 27 81 72 74 132-8 69 24 112 95 130 74 19 108 61 103 126-2 31 4 61 22 92"/>
    <path d="M113-61c-7 52 15 91 66 116 68 33 101 88 91 163-8 58 19 94 80 110 86 22 126 72 119 147-3 29 3 57 18 85"/>
    <path d="M153-62c-5 39 12 69 51 89 82 41 123 107 111 196-7 46 16 74 65 87 97 25 143 83 134 169-3 27 1 53 13 79"/>

    <path d="M557-44c-38 47-44 96-17 147 25 48 19 91-18 130-43 45-46 96-9 153 38 58 34 108-12 153"/>
    <path d="M603-44c-33 41-38 83-14 127 31 57 24 109-21 156-35 37-37 80-7 126 48 73 43 137-15 191"/>
    <path d="M650-40c-27 34-31 68-11 104 38 67 29 129-26 186-27 29-29 63-6 99 55 84 50 155-17 213"/>

    <path d="M243 85c38-30 82-31 119-4 35 26 37 61 7 94-34 37-84 45-128 18-41-25-40-72 2-108Z"/>
    <path d="M267 109c25-20 53-20 77-3 22 17 23 39 4 60-22 24-54 29-83 12-26-17-26-47 2-69Z"/>
    <path d="M515 284c32-24 69-25 100-3 29 21 31 50 6 77-28 31-70 37-106 15-35-21-34-60 0-89Z"/>
    <path d="M541 309c18-14 39-14 57-2 16 12 17 29 3 44-16 18-40 21-61 9-20-12-19-35 1-51Z"/>
  </g>
</svg>
